<svg id="Layer_1" data-name="Layer 1" xmlns="http://www.w3.org/2000/svg" viewBox="0 0 127.08 136.17"><defs><style>.cls-1{fill:#494948;}</style></defs><path class="cls-1" d="M41.73,103a6.54,6.54,0,0,0,.15-.8c.38-5.63.73-11.26,1.16-16.89.34-4.47.41-9,1.27-13.39.8-4.09,2.54-7.82,4-11.66,3.52-9,6.9-18.13,10.37-27.19a9.33,9.33,0,0,1,14.95-3.65c.64.59.93.69,1.65,0a9.32,9.32,0,0,1,15,3.68c.51,1.32,1,2.65,1.52,4,3.63,9.28,6.9,18.7,10.77,27.89a33,33,0,0,1,2.56,10.29c.59,7.36,1.08,14.72,1.61,22.07.14,1.87.28,3.74.43,5.76A47,47,0,1,0,38.6,39C21.07,59.56,25.61,88.41,41.73,103Zm35.14-1.34q0,9.66,0,19.33a13.54,13.54,0,0,0,2.39,8,8.13,8.13,0,0,0,6.09,3.87,13.78,13.78,0,0,1,5.27,1.7,123.79,123.79,0,0,1,11.27,6.79,3.33,3.33,0,0,0,2.76.52Q116.82,139,129,136.2a2.43,2.43,0,0,0,2.2-2.3,2.48,2.48,0,0,0-1.86-2.46c-4.58-1.91-9.24-3.62-13.9-5.31-3.29-1.19-6.61-2.29-9.79-3.78a4.47,4.47,0,0,1-2.94-4.67c.16-4,.13-7.92-.06-11.86-.3-5.95-.77-11.89-1.23-17.82-.33-4.34-.49-8.7-1-13s-2.36-8.5-4-12.63c-3.55-9-6.92-18.12-10.37-27.19-1-2.75-3.44-4-6-3.13s-3.71,3.41-2.81,6.17,1.83,5.36,2.71,8.06c2.77,8.43,5.3,16.93,6.08,25.83a1.71,1.71,0,0,0,.88,1.36A8.92,8.92,0,0,1,91,80.88c.08,9.46,0,18.93,0,28.4a2.91,2.91,0,0,1-.25,1.16,2.31,2.31,0,0,1-3.14,1.11,2.64,2.64,0,0,1-1.35-2.68q0-13.47,0-26.93a8.24,8.24,0,0,0-.13-1.86,4.71,4.71,0,0,0-5.23-3.54,4.64,4.64,0,0,0-4,4.6C76.86,88,76.87,94.83,76.87,101.68Zm-4.75,0c0-6.76,0-13.52,0-20.28a4.81,4.81,0,0,0-4.45-4.92,4.65,4.65,0,0,0-4.91,4.93q0,13.74,0,27.47c0,1.84-.91,2.89-2.42,2.86S58,110.73,58,109c0-9.25,0-18.49,0-27.74a9,9,0,0,1,4-7.7,1.93,1.93,0,0,0,1-1.61,75.21,75.21,0,0,1,2-11.92c1.77-7.43,4.31-14.62,6.73-21.85A4.62,4.62,0,0,0,69,32.06c-2.54-.9-5,.35-6.06,3-4.13,10.56-7.84,21.28-12.24,31.74a30.4,30.4,0,0,0-1.86,6.5,111,111,0,0,0-1.13,12.74c-.67,10.1-1.75,20.19-1.52,30.34.1,4.42-.3,4.89-4.4,6.63l-.5.19c-7.12,2.82-14.44,5.13-21.5,8.13-1.22.52-2.13,1.2-2,2.61s1.14,2,2.41,2.28Q32.06,139,43.9,141.84a4.1,4.1,0,0,0,3.51-.61,111.66,111.66,0,0,1,11.05-6.66,13.39,13.39,0,0,1,5.15-1.66,8.12,8.12,0,0,0,6.1-3.84,13.61,13.61,0,0,0,2.42-8Q72.12,111.39,72.12,101.72ZM74.3,45.18c-.87,2.72-1.79,5.44-2.61,8.18A125.39,125.39,0,0,0,67.88,70.6c-.07.47-.48,1.17.55,1.28a8.93,8.93,0,0,1,5.63,2.72c.31.31.52.38.86,0a8.88,8.88,0,0,1,5.61-2.74c.58-.07.75-.3.65-.86-.21-1.13-.35-2.28-.55-3.41A107.11,107.11,0,0,0,74.3,45.18Zm51.41-2.78c1.29-.58,2.9-1.06,3.85-2.49a2.31,2.31,0,0,0-2.77-3.3,13.08,13.08,0,0,0-3,1.74,2,2,0,0,0-.54,2.53A2.53,2.53,0,0,0,125.71,42.4ZM23.23,96.5a7.9,7.9,0,0,0-3.75,2.37,2,2,0,0,0,.15,2.59,2.06,2.06,0,0,0,2.59.77A15.3,15.3,0,0,0,25,100.67a2.1,2.1,0,0,0,.75-2.6A2.42,2.42,0,0,0,23.23,96.5ZM25.9,39.8a2.29,2.29,0,0,0-.33-.92,6.3,6.3,0,0,0-4.13-2.36A2,2,0,0,0,19.31,38a2.13,2.13,0,0,0,.7,2.62,13.86,13.86,0,0,0,2.75,1.57A2.35,2.35,0,0,0,25.9,39.8ZM129.84,100a2.13,2.13,0,0,0-.7-1.66,9.48,9.48,0,0,0-3.08-1.76,2.13,2.13,0,0,0-2.67,1.18,2.09,2.09,0,0,0,.59,2.84,12.23,12.23,0,0,0,2.74,1.57A2.27,2.27,0,0,0,129.84,100ZM44.24,14.09c-1.94,0-3.07,1.49-2.56,3A8.82,8.82,0,0,0,43.32,20a2.28,2.28,0,0,0,3.73-.31,2.56,2.56,0,0,0-.22-2.87C46.08,15.64,45.69,14.11,44.24,14.09ZM104,20.79a1.58,1.58,0,0,0,1.2-.37,6.53,6.53,0,0,0,2.24-4,2,2,0,0,0-1.52-2.25,2.14,2.14,0,0,0-2.61.77,13.79,13.79,0,0,0-1.48,2.51A2.33,2.33,0,0,0,104,20.79Zm-89.65,51h0c.44,0,.89,0,1.33,0A2.29,2.29,0,0,0,18,69.5a2.23,2.23,0,0,0-2.17-2.38,16.24,16.24,0,0,0-2.79,0A2.2,2.2,0,0,0,11,69.5a2.26,2.26,0,0,0,2,2.24A11.79,11.79,0,0,0,14.32,71.75Zm120.18,0v0c.44,0,.89,0,1.33,0A2.26,2.26,0,0,0,138,69.54a2.2,2.2,0,0,0-2.13-2.41,13.51,13.51,0,0,0-3,.06A2.07,2.07,0,0,0,131,69.46a2.17,2.17,0,0,0,1.87,2.25A7.66,7.66,0,0,0,134.5,71.73Z" transform="translate(-10.95 -5.85)"/><path class="cls-1" d="M75.3,5.85a5.2,5.2,0,0,1,1.32,5.7,2.35,2.35,0,0,1-4.24,0,5.16,5.16,0,0,1,1.32-5.7Z" transform="translate(-10.95 -5.85)"/><path class="cls-1" d="M41.73,103C25.61,88.41,21.07,59.56,38.6,39a47,47,0,1,1,68.61,64.16c-.15-2-.29-3.89-.43-5.76-.53-7.35-1-14.71-1.61-22.07A33,33,0,0,0,102.61,65c-3.87-9.19-7.14-18.61-10.77-27.89-.51-1.32-1-2.65-1.52-4a9.32,9.32,0,0,0-15-3.68c-.72.65-1,.55-1.65,0a9.33,9.33,0,0,0-14.95,3.65c-3.47,9.06-6.85,18.15-10.37,27.19-1.49,3.84-3.23,7.57-4,11.66-.86,4.43-.93,8.92-1.27,13.39-.43,5.63-.78,11.26-1.16,16.89A6.54,6.54,0,0,1,41.73,103Z" transform="translate(-10.95 -5.85)"/><path class="cls-1" d="M76.87,101.68c0-6.85,0-13.69,0-20.54a4.64,4.64,0,0,1,4-4.6,4.71,4.71,0,0,1,5.23,3.54,8.24,8.24,0,0,1,.13,1.86q0,13.45,0,26.93a2.64,2.64,0,0,0,1.35,2.68,2.31,2.31,0,0,0,3.14-1.11,2.91,2.91,0,0,0,.25-1.16c0-9.47.05-18.94,0-28.4a8.92,8.92,0,0,0-4.06-7.43A1.71,1.71,0,0,1,86,72.09c-.78-8.9-3.31-17.4-6.08-25.83-.88-2.7-1.83-5.37-2.71-8.06S77.52,32.87,80,32s5,.38,6,3.13c3.45,9.07,6.82,18.17,10.37,27.19,1.63,4.13,3.45,8.17,4,12.63s.69,8.68,1,13c.46,5.93.93,11.87,1.23,17.82.19,3.94.22,7.91.06,11.86a4.47,4.47,0,0,0,2.94,4.67c3.18,1.49,6.5,2.59,9.79,3.78,4.66,1.69,9.32,3.4,13.9,5.31a2.48,2.48,0,0,1,1.86,2.46,2.43,2.43,0,0,1-2.2,2.3q-12.18,2.85-24.35,5.72a3.33,3.33,0,0,1-2.76-.52,123.79,123.79,0,0,0-11.27-6.79,13.78,13.78,0,0,0-5.27-1.7A8.13,8.13,0,0,1,79.26,129a13.54,13.54,0,0,1-2.39-8Q76.88,111.35,76.87,101.68Z" transform="translate(-10.95 -5.85)"/><path class="cls-1" d="M72.12,101.72q0,9.66,0,19.33a13.61,13.61,0,0,1-2.42,8,8.12,8.12,0,0,1-6.1,3.84,13.39,13.39,0,0,0-5.15,1.66,111.66,111.66,0,0,0-11.05,6.66,4.1,4.1,0,0,1-3.51.61Q32.07,139,20.21,136.26c-1.27-.3-2.3-.86-2.41-2.28s.8-2.09,2-2.61c7.06-3,14.38-5.31,21.5-8.13l.5-.19c4.1-1.74,4.5-2.21,4.4-6.63-.23-10.15.85-20.24,1.52-30.34a111,111,0,0,1,1.13-12.74,30.4,30.4,0,0,1,1.86-6.5C55.13,56.38,58.84,45.66,63,35.1c1.06-2.69,3.52-3.94,6.06-3a4.62,4.62,0,0,1,2.75,6.08c-2.42,7.23-5,14.42-6.73,21.85a75.21,75.21,0,0,0-2,11.92,1.93,1.93,0,0,1-1,1.61,9,9,0,0,0-4,7.7c0,9.25,0,18.49,0,27.74,0,1.77.87,2.79,2.32,2.82s2.41-1,2.42-2.86q0-13.73,0-27.47a4.65,4.65,0,0,1,4.91-4.93,4.81,4.81,0,0,1,4.45,4.92C72.14,88.2,72.12,95,72.12,101.72Z" transform="translate(-10.95 -5.85)"/><path class="cls-1" d="M74.3,45.18a107.11,107.11,0,0,1,6.33,22.44c.2,1.13.34,2.28.55,3.41.1.56-.07.79-.65.86a8.88,8.88,0,0,0-5.61,2.74c-.34.35-.55.28-.86,0a8.93,8.93,0,0,0-5.63-2.72c-1-.11-.62-.81-.55-1.28a125.39,125.39,0,0,1,3.81-17.24C72.51,50.62,73.43,47.9,74.3,45.18Z" transform="translate(-10.95 -5.85)"/><path class="cls-1" d="M125.71,42.4a2.53,2.53,0,0,1-2.41-1.52,2,2,0,0,1,.54-2.53,13.08,13.08,0,0,1,3-1.74,2.31,2.31,0,0,1,2.77,3.3C128.61,41.34,127,41.82,125.71,42.4Z" transform="translate(-10.95 -5.85)"/><path class="cls-1" d="M23.23,96.5a2.42,2.42,0,0,1,2.5,1.57,2.1,2.1,0,0,1-.75,2.6,15.3,15.3,0,0,1-2.76,1.56,2.06,2.06,0,0,1-2.59-.77,2,2,0,0,1-.15-2.59A7.9,7.9,0,0,1,23.23,96.5Z" transform="translate(-10.95 -5.85)"/><path class="cls-1" d="M25.9,39.8a2.35,2.35,0,0,1-3.14,2.38A13.86,13.86,0,0,1,20,40.61a2.13,2.13,0,0,1-.7-2.62,2,2,0,0,1,2.13-1.47,6.3,6.3,0,0,1,4.13,2.36A2.29,2.29,0,0,1,25.9,39.8Z" transform="translate(-10.95 -5.85)"/><path class="cls-1" d="M129.84,100a2.27,2.27,0,0,1-3.12,2.17,12.23,12.23,0,0,1-2.74-1.57,2.09,2.09,0,0,1-.59-2.84,2.13,2.13,0,0,1,2.67-1.18,9.48,9.48,0,0,1,3.08,1.76A2.13,2.13,0,0,1,129.84,100Z" transform="translate(-10.95 -5.85)"/><path class="cls-1" d="M44.24,14.09c1.45,0,1.84,1.55,2.59,2.71a2.56,2.56,0,0,1,.22,2.87,2.28,2.28,0,0,1-3.73.31,8.82,8.82,0,0,1-1.64-2.87C41.17,15.58,42.3,14.09,44.24,14.09Z" transform="translate(-10.95 -5.85)"/><path class="cls-1" d="M104,20.79a2.33,2.33,0,0,1-2.17-3.29A13.79,13.79,0,0,1,103.28,15a2.14,2.14,0,0,1,2.61-.77,2,2,0,0,1,1.52,2.25,6.53,6.53,0,0,1-2.24,4A1.58,1.58,0,0,1,104,20.79Z" transform="translate(-10.95 -5.85)"/><path class="cls-1" d="M14.32,71.75a11.79,11.79,0,0,1-1.33,0,2.26,2.26,0,0,1-2-2.24A2.2,2.2,0,0,1,13,67.14a16.24,16.24,0,0,1,2.79,0A2.23,2.23,0,0,1,18,69.5a2.29,2.29,0,0,1-2.31,2.26c-.44,0-.89,0-1.33,0Z" transform="translate(-10.95 -5.85)"/><path class="cls-1" d="M134.5,71.73a7.66,7.66,0,0,1-1.59,0A2.17,2.17,0,0,1,131,69.46a2.07,2.07,0,0,1,1.82-2.27,13.51,13.51,0,0,1,3-.06A2.2,2.2,0,0,1,138,69.54a2.26,2.26,0,0,1-2.21,2.21c-.44,0-.89,0-1.33,0Z" transform="translate(-10.95 -5.85)"/></svg>